<svg width="126" height="23" viewBox="0 0 126 23" fill="none" xmlns="http://www.w3.org/2000/svg">
<path d="M9.12526 18.4697C7.93781 18.4697 6.81921 18.246 5.76944 17.7985C4.72827 17.3425 3.82048 16.7273 3.04606 15.9528C2.27163 15.1698 1.6607 14.2577 1.21326 13.2165C0.774421 12.1754 0.555002 11.0611 0.555002 9.87363C0.555002 8.68619 0.774421 7.57188 1.21326 6.53071C1.6607 5.48094 2.27163 4.56454 3.04606 3.78152C3.82908 2.99849 4.74118 2.38326 5.78234 1.93582C6.82351 1.48837 7.93781 1.26465 9.12526 1.26465C9.91689 1.26465 10.6784 1.36791 11.4098 1.57442C12.1412 1.78093 12.8253 2.06919 13.462 2.43919C14.1074 2.80919 14.6925 3.25663 15.2174 3.78152C15.7423 4.3064 16.1897 4.89152 16.5597 5.53687C16.9383 6.17362 17.2309 6.85769 17.4374 7.58909C17.6439 8.32049 17.7471 9.082 17.7471 9.87363C17.7471 11.0611 17.5191 12.1754 17.0631 13.2165C16.607 14.2577 15.9875 15.1698 15.2045 15.9528C14.43 16.7273 13.5179 17.3425 12.4682 17.7985C11.427 18.246 10.3127 18.4697 9.12526 18.4697ZM9.13817 15.0235C9.85236 15.0235 10.5192 14.8902 11.1388 14.6234C11.7669 14.3567 12.3133 13.9953 12.7779 13.5392C13.2426 13.0746 13.6083 12.5282 13.875 11.9C14.1504 11.2719 14.2881 10.5964 14.2881 9.87363C14.2881 9.15944 14.1504 8.49258 13.875 7.87304C13.6083 7.25351 13.2426 6.71141 12.7779 6.24676C12.3133 5.78211 11.7669 5.41641 11.1388 5.14966C10.5192 4.87431 9.85236 4.73664 9.13817 4.73664C8.42398 4.73664 7.75281 4.87431 7.12467 5.14966C6.49653 5.41641 5.95013 5.78211 5.48548 6.24676C5.02943 6.71141 4.66804 7.25351 4.40129 7.87304C4.13455 8.49258 4.00117 9.15944 4.00117 9.87363C4.00117 10.5964 4.13455 11.2719 4.40129 11.9C4.66804 12.5282 5.02943 13.0746 5.48548 13.5392C5.95013 13.9953 6.49653 14.3567 7.12467 14.6234C7.75281 14.8902 8.42398 15.0235 9.13817 15.0235ZM24.4588 14.9461C24.6997 14.9461 24.9234 14.9891 25.13 15.0752C25.3451 15.1612 25.5258 15.2817 25.6721 15.4366C25.8183 15.5914 25.9345 15.7721 26.0205 15.9786C26.1066 16.1852 26.1496 16.4046 26.1496 16.6369C26.1496 16.8778 26.1066 17.1016 26.0205 17.3081C25.9345 17.5146 25.8183 17.691 25.6721 17.8373C25.5258 17.9835 25.3451 18.0997 25.13 18.1857C24.9234 18.2718 24.6997 18.3148 24.4588 18.3148C23.8565 18.3148 23.2843 18.2159 22.7422 18.018C22.2087 17.8114 21.7397 17.5232 21.3353 17.1532C20.9309 16.7832 20.6082 16.3443 20.3673 15.8367C20.1349 15.3204 20.0188 14.7525 20.0188 14.1329V3.11035C20.0188 2.86942 20.0618 2.6457 20.1479 2.43919C20.2339 2.23268 20.3501 2.05198 20.4963 1.89709C20.6512 1.74221 20.8276 1.62175 21.0255 1.5357C21.2234 1.44105 21.4386 1.39372 21.6709 1.39372C21.9118 1.39372 22.1398 1.44105 22.355 1.5357C22.5701 1.62175 22.7594 1.74221 22.9229 1.89709C23.0863 2.05198 23.2154 2.23268 23.3101 2.43919C23.4047 2.6457 23.452 2.86942 23.452 3.11035V14.2104C23.4693 14.4599 23.5639 14.6449 23.736 14.7654C23.9167 14.8859 24.1576 14.9461 24.4588 14.9461ZM27.6081 7.56327C27.6081 7.33095 27.6511 7.11153 27.7372 6.90502C27.8318 6.6985 27.9566 6.51781 28.1115 6.36292C28.2664 6.20804 28.4471 6.08757 28.6536 6.00153C28.8601 5.90687 29.0795 5.85955 29.3118 5.85955C29.5442 5.85955 29.7636 5.90687 29.9701 6.00153C30.1852 6.08757 30.3702 6.20804 30.5251 6.36292C30.6886 6.51781 30.8133 6.6985 30.8994 6.90502C30.994 7.11153 31.0414 7.33095 31.0414 7.56327V12.3776C31.0414 12.7562 31.1102 13.109 31.2479 13.436C31.3856 13.7543 31.5749 14.034 31.8158 14.2749C32.0653 14.5072 32.3536 14.6923 32.6806 14.8299C33.0161 14.959 33.3732 15.0235 33.7518 15.0235C34.1305 15.0235 34.4703 14.9547 34.7715 14.817C35.0727 14.6793 35.3265 14.49 35.533 14.2491C35.7395 14.0082 35.8987 13.7242 36.0106 13.3972C36.1224 13.0703 36.1784 12.7175 36.1784 12.3389V7.56327C36.1784 7.33095 36.2257 7.11153 36.3203 6.90502C36.415 6.6985 36.5398 6.51781 36.6946 6.36292C36.8581 6.20804 37.0474 6.08757 37.2626 6.00153C37.4777 5.90687 37.7014 5.85955 37.9337 5.85955C38.166 5.85955 38.3855 5.90687 38.592 6.00153C38.7985 6.08757 38.9749 6.20804 39.1212 6.36292C39.276 6.51781 39.3965 6.6985 39.4826 6.90502C39.5686 7.11153 39.6116 7.33095 39.6116 7.56327V12.3389C39.6116 13.1821 39.4654 13.9738 39.1728 14.7138C38.8802 15.4538 38.4715 16.1034 37.9466 16.6627C37.4217 17.2134 36.8022 17.6523 36.088 17.9792C35.3738 18.2976 34.5951 18.4568 33.7518 18.4568C32.9086 18.4568 32.1127 18.2976 31.364 17.9792C30.6154 17.6523 29.9615 17.2134 29.4022 16.6627C28.8515 16.1034 28.4126 15.4538 28.0857 14.7138C27.7673 13.9738 27.6081 13.1821 27.6081 12.3389V7.56327ZM41.9091 7.53746C41.9091 7.29653 41.9521 7.07281 42.0382 6.8663C42.1328 6.65978 42.2576 6.48339 42.4125 6.33711C42.5673 6.18222 42.748 6.06176 42.9545 5.97571C43.1611 5.88967 43.3848 5.84664 43.6257 5.84664C43.858 5.84664 44.0732 5.88967 44.2711 5.97571C44.4776 6.06176 44.654 6.18222 44.8003 6.33711C44.9551 6.48339 45.0756 6.65978 45.1616 6.8663C45.2563 7.07281 45.3079 7.29653 45.3165 7.53746L45.3682 13.7328C45.3682 13.7759 45.3639 13.8189 45.3553 13.8619C45.3553 13.9049 45.351 13.9479 45.3423 13.991C45.4112 14.2663 45.5618 14.4943 45.7941 14.675C46.0264 14.8557 46.2932 14.9461 46.5943 14.9461C46.775 14.9461 46.9385 14.9117 47.0848 14.8428C47.2397 14.7654 47.3687 14.6664 47.472 14.546C47.5839 14.4255 47.6699 14.2878 47.7301 14.1329C47.799 13.9695 47.8334 13.8017 47.8334 13.6296V11.0482C47.8334 10.8072 47.8764 10.5835 47.9625 10.377C48.0571 10.1705 48.1819 9.98979 48.3368 9.83491C48.4917 9.68003 48.6724 9.55956 48.8789 9.47351C49.0854 9.37886 49.3091 9.33154 49.55 9.33154C49.7824 9.33154 50.0018 9.37886 50.2083 9.47351C50.4148 9.55956 50.5912 9.68003 50.7375 9.83491C50.8924 9.98979 51.0128 10.1705 51.0989 10.377C51.1935 10.5835 51.2409 10.8072 51.2409 11.0482V13.6812C51.2409 13.7242 51.2366 13.7629 51.2279 13.7974C51.2279 13.8318 51.2279 13.8705 51.2279 13.9135C51.271 14.1975 51.4043 14.4384 51.6281 14.6363C51.8604 14.8256 52.1271 14.9203 52.4283 14.9203C52.5832 14.9203 52.7381 14.8902 52.893 14.8299C53.0564 14.7697 53.2027 14.6879 53.3318 14.5847C53.4609 14.4728 53.5641 14.3481 53.6416 14.2104C53.719 14.0641 53.7577 13.9049 53.7577 13.7328V7.53746C53.7577 7.29653 53.8007 7.07281 53.8868 6.8663C53.9814 6.65978 54.1062 6.48339 54.2611 6.33711C54.416 6.18222 54.5967 6.06176 54.8032 5.97571C55.0097 5.88967 55.2334 5.84664 55.4744 5.84664C55.7067 5.84664 55.9218 5.88967 56.1197 5.97571C56.3262 6.06176 56.5069 6.18222 56.6618 6.33711C56.8167 6.48339 56.9372 6.65978 57.0232 6.8663C57.1178 7.07281 57.1652 7.29653 57.1652 7.53746V13.8361C57.1652 14.4728 57.0361 15.0709 56.778 15.6302C56.5198 16.1895 56.1713 16.6799 55.7325 17.1016C55.3023 17.5146 54.7989 17.8459 54.2224 18.0954C53.6459 18.3363 53.0392 18.4568 52.4025 18.4568C51.8346 18.4568 51.3054 18.3621 50.8149 18.1728C50.3331 17.9835 49.8856 17.7254 49.4726 17.3984C49.0596 17.7254 48.6078 17.9835 48.1174 18.1728C47.6269 18.3621 47.0977 18.4568 46.5298 18.4568C45.893 18.4568 45.295 18.3363 44.7357 18.0954C44.1764 17.8459 43.6859 17.5146 43.2643 17.1016C42.8513 16.6799 42.52 16.1895 42.2705 15.6302C42.0295 15.0709 41.9091 14.4728 41.9091 13.8361V7.53746Z" fill="white"/>
<path d="M80.4495 3.82024C80.4495 3.57931 80.4968 3.35559 80.5915 3.14908C80.6861 2.93396 80.8109 2.74896 80.9658 2.59407C81.1207 2.43058 81.3014 2.30582 81.5079 2.21977C81.723 2.12512 81.9467 2.07779 82.179 2.07779C82.4114 2.07779 82.6351 2.12512 82.8502 2.21977C83.0739 2.30582 83.2675 2.42628 83.431 2.58117C83.5945 2.73605 83.7236 2.92105 83.8182 3.13617C83.9215 3.35129 83.9731 3.57931 83.9731 3.82024V5.47234H87.9356C88.1679 5.47234 88.3873 5.51966 88.5938 5.61432C88.8089 5.70036 88.994 5.82513 89.1488 5.98862C89.3123 6.1435 89.4371 6.3285 89.5231 6.54362C89.6178 6.75013 89.6651 6.96955 89.6651 7.20188C89.6651 7.4342 89.6178 7.64932 89.5231 7.84723C89.4371 8.04514 89.3123 8.22153 89.1488 8.37642C88.994 8.5227 88.8089 8.63886 88.5938 8.72491C88.3873 8.81095 88.1679 8.85398 87.9356 8.85398H83.9731V12.1969C83.9731 12.5927 84.042 12.9627 84.1796 13.3069C84.3259 13.6511 84.5238 13.9522 84.7734 14.2104C85.0229 14.4685 85.3155 14.6707 85.651 14.817C85.9866 14.9633 86.3523 15.0364 86.7481 15.0364C87.1009 15.0364 87.4279 14.9891 87.7291 14.8945C88.0302 14.7998 88.297 14.6449 88.5293 14.4298C88.7186 14.2577 88.9165 14.12 89.123 14.0168C89.3381 13.9049 89.5748 13.849 89.8329 13.849C90.0222 13.849 90.2115 13.892 90.4008 13.9781C90.5901 14.0555 90.7536 14.1674 90.8913 14.3136C91.0376 14.4599 91.1537 14.632 91.2398 14.8299C91.3344 15.0192 91.3817 15.2257 91.3817 15.4495C91.3817 15.7162 91.3258 15.9786 91.214 16.2368C91.1107 16.4949 90.9601 16.723 90.7622 16.9209C90.2287 17.4371 89.6221 17.8244 88.9423 18.0825C88.2626 18.3406 87.5312 18.4697 86.7481 18.4697C85.8791 18.4697 85.0616 18.3062 84.2958 17.9792C83.53 17.6437 82.8631 17.1919 82.2952 16.624C81.7273 16.0561 81.2756 15.3892 80.94 14.6234C80.613 13.8576 80.4495 13.0402 80.4495 12.1711V3.82024ZM95.6798 12.1711C95.6798 12.5669 95.7529 12.9369 95.8992 13.2811C96.0541 13.6253 96.2606 13.9264 96.5187 14.1846C96.7855 14.4427 97.091 14.6449 97.4351 14.7912C97.7793 14.9375 98.145 15.0106 98.5322 15.0106C98.9281 15.0106 99.2981 14.9375 99.6422 14.7912C99.995 14.6449 100.3 14.4427 100.559 14.1846C100.817 13.9264 101.019 13.6253 101.165 13.2811C101.32 12.9369 101.398 12.5669 101.398 12.1711C101.398 11.7753 101.32 11.4053 101.165 11.0611C101.019 10.7169 100.817 10.4157 100.559 10.1576C100.3 9.89944 99.995 9.69723 99.6422 9.55096C99.2981 9.40468 98.9281 9.33154 98.5322 9.33154C98.145 9.33154 97.7793 9.40468 97.4351 9.55096C97.091 9.69723 96.7855 9.89944 96.5187 10.1576C96.2606 10.4157 96.0541 10.7169 95.8992 11.0611C95.7529 11.4053 95.6798 11.7753 95.6798 12.1711ZM92.2336 12.1711C92.2336 11.302 92.3971 10.4846 92.7241 9.71875C93.0597 8.95293 93.5114 8.28607 94.0793 7.71816C94.6558 7.14165 95.3227 6.6899 96.0799 6.36292C96.8457 6.02734 97.6632 5.85955 98.5322 5.85955C99.4013 5.85955 100.219 6.02734 100.985 6.36292C101.75 6.6899 102.417 7.14165 102.985 7.71816C103.553 8.28607 104.001 8.95293 104.327 9.71875C104.663 10.4846 104.831 11.302 104.831 12.1711C104.831 13.0402 104.663 13.8576 104.327 14.6234C104.001 15.3806 103.553 16.0432 102.985 16.6111C102.417 17.179 101.75 17.6307 100.985 17.9663C100.219 18.2933 99.4013 18.4568 98.5322 18.4568C97.6632 18.4568 96.8457 18.2933 96.0799 17.9663C95.3227 17.6307 94.6558 17.179 94.0793 16.6111C93.5114 16.0432 93.0597 15.3806 92.7241 14.6234C92.3971 13.8576 92.2336 13.0402 92.2336 12.1711ZM106.547 3.04582C106.547 2.79628 106.591 2.56396 106.677 2.34884C106.771 2.12512 106.896 1.93582 107.051 1.78093C107.206 1.61744 107.386 1.49268 107.593 1.40663C107.808 1.31198 108.036 1.26465 108.277 1.26465C108.518 1.26465 108.742 1.31198 108.948 1.40663C109.163 1.49268 109.344 1.61744 109.49 1.78093C109.645 1.93582 109.766 2.12512 109.852 2.34884C109.938 2.56396 109.981 2.79628 109.981 3.04582V7.00827C110.118 6.84478 110.295 6.6942 110.51 6.55653C110.734 6.41885 110.975 6.29839 111.233 6.19513C111.499 6.09188 111.771 6.01013 112.046 5.9499C112.33 5.88967 112.601 5.85955 112.859 5.85955C113.719 5.85955 114.533 6.02734 115.298 6.36292C116.064 6.6899 116.731 7.14165 117.299 7.71816C117.867 8.28607 118.314 8.95293 118.641 9.71875C118.977 10.4846 119.145 11.302 119.145 12.1711C119.145 13.0402 118.977 13.8576 118.641 14.6234C118.314 15.3806 117.867 16.0432 117.299 16.6111C116.731 17.179 116.064 17.6307 115.298 17.9663C114.533 18.2933 113.719 18.4568 112.859 18.4568C111.99 18.4568 111.173 18.2933 110.407 17.9663C109.649 17.6307 108.983 17.179 108.406 16.6111C107.83 16.0432 107.374 15.3806 107.038 14.6234C106.711 13.8576 106.547 13.0402 106.547 12.1711V3.04582ZM109.994 12.1711C109.994 12.5669 110.067 12.9369 110.213 13.2811C110.368 13.6253 110.574 13.9264 110.833 14.1846C111.099 14.4427 111.405 14.6449 111.749 14.7912C112.102 14.9375 112.472 15.0106 112.859 15.0106C113.255 15.0106 113.625 14.9375 113.969 14.7912C114.313 14.6449 114.614 14.4427 114.873 14.1846C115.131 13.9264 115.333 13.6253 115.479 13.2811C115.634 12.9369 115.711 12.5669 115.711 12.1711C115.711 11.7753 115.634 11.4053 115.479 11.0611C115.333 10.7169 115.131 10.4157 114.873 10.1576C114.614 9.89944 114.313 9.69723 113.969 9.55096C113.625 9.40468 113.255 9.33154 112.859 9.33154C112.472 9.33154 112.102 9.40468 111.749 9.55096C111.405 9.69723 111.099 9.89944 110.833 10.1576C110.574 10.4157 110.368 10.7169 110.213 11.0611C110.067 11.4053 109.994 11.7753 109.994 12.1711ZM120.939 2.98128C120.939 2.72314 120.986 2.48652 121.081 2.2714C121.184 2.04768 121.317 1.85407 121.481 1.69058C121.653 1.51849 121.851 1.38512 122.075 1.29047C122.298 1.19581 122.535 1.14849 122.785 1.14849C123.034 1.14849 123.271 1.19581 123.494 1.29047C123.718 1.38512 123.912 1.51849 124.075 1.69058C124.247 1.85407 124.381 2.04768 124.475 2.2714C124.579 2.48652 124.63 2.72314 124.63 2.98128C124.63 3.23082 124.579 3.46745 124.475 3.69117C124.381 3.91489 124.247 4.1128 124.075 4.28489C123.912 4.44838 123.718 4.57745 123.494 4.6721C123.271 4.76675 123.034 4.81408 122.785 4.81408C122.535 4.81408 122.298 4.76675 122.075 4.6721C121.851 4.57745 121.653 4.44838 121.481 4.28489C121.317 4.1128 121.184 3.91489 121.081 3.69117C120.986 3.46745 120.939 3.23082 120.939 2.98128ZM121.042 7.56327C121.042 7.33095 121.089 7.11153 121.184 6.90502C121.279 6.6985 121.403 6.51781 121.558 6.36292C121.722 6.20804 121.911 6.08757 122.126 6.00153C122.341 5.90687 122.569 5.85955 122.81 5.85955C123.043 5.85955 123.262 5.90687 123.469 6.00153C123.675 6.08757 123.851 6.20804 123.998 6.36292C124.153 6.51781 124.273 6.6985 124.359 6.90502C124.445 7.11153 124.488 7.33095 124.488 7.56327V16.7531C124.488 16.9854 124.441 17.2048 124.346 17.4113C124.26 17.6178 124.14 17.7985 123.985 17.9534C123.83 18.1083 123.649 18.2288 123.443 18.3148C123.236 18.4095 123.017 18.4568 122.785 18.4568C122.552 18.4568 122.328 18.4095 122.113 18.3148C121.907 18.2288 121.722 18.1083 121.558 17.9534C121.403 17.7985 121.279 17.6178 121.184 17.4113C121.089 17.2048 121.042 16.9854 121.042 16.7531V7.56327Z" fill="white"/>
<g clip-path="url(#clip0)">
<path d="M74.7997 1.68765C74.6568 1.60602 74.4932 1.567 74.3285 1.5753C74.1638 1.58361 74.005 1.63887 73.8713 1.73445L61.4949 10.5511L61.4922 10.5518C61.3497 10.6544 61.2427 10.7981 61.1858 10.9632C61.1289 11.1282 61.1249 11.3067 61.1742 11.4741C61.2236 11.6416 61.3239 11.7899 61.4615 11.8987C61.5992 12.0076 61.7674 12.0717 61.9432 12.0824L61.9585 12.083L67.2267 12.8277C67.3264 12.8309 67.4253 12.8082 67.5133 12.7618C67.6014 12.7155 67.6757 12.647 67.7287 12.5633L73.4215 3.54971C73.438 3.52132 73.4601 3.49645 73.4863 3.47649C73.5126 3.45654 73.5426 3.4419 73.5745 3.43342C73.6065 3.42494 73.6399 3.42277 73.6727 3.42705C73.7055 3.43133 73.7371 3.44197 73.7658 3.45836C73.7945 3.47474 73.8196 3.49656 73.8397 3.52256C73.8599 3.54857 73.8747 3.57825 73.8832 3.6099C73.8918 3.64156 73.894 3.67458 73.8897 3.70708C73.8853 3.73958 73.8746 3.77091 73.8581 3.7993L68.8201 13.1847C68.7734 13.272 68.7507 13.3699 68.7542 13.4686C68.7576 13.5674 68.7872 13.6635 68.8399 13.7473L72.1266 17.8954C72.1306 17.9016 72.1343 17.9072 72.1384 17.9131C72.3341 18.1999 72.6734 18.3489 73.0145 18.2744C73.0293 18.2705 73.0345 18.2691 73.0489 18.2653C73.2194 18.2211 73.3724 18.1272 73.4882 17.9957C73.604 17.8642 73.6772 17.7013 73.6982 17.5281L75.2211 2.5102C75.2387 2.34742 75.2082 2.18312 75.1334 2.03714C75.0586 1.89116 74.9427 1.76978 74.7997 1.68765Z" fill="white"/>
</g>
<defs>
<clipPath id="clip0">
<rect width="18.2384" height="18.0839" fill="white" transform="matrix(0.966556 -0.256457 0.2612 0.965285 58.1538 4.67737)"/>
</clipPath>
</defs>
</svg>
